<?xml version="1.0" encoding="utf-8"?>
<!-- Generator: Adobe Illustrator 22.1.0, SVG Export Plug-In . SVG Version: 6.00 Build 0)  -->
<svg version="1.0" id="Layer_1" xmlns="http://www.w3.org/2000/svg" xmlns:xlink="http://www.w3.org/1999/xlink" x="0px" y="0px"
	 viewBox="0 0 251.6 75.6" enable-background="new 0 0 251.6 75.6" xml:space="preserve">
<g>
	<defs>
		<rect id="SVGID_1_" x="-407.4" y="226.7" width="1651.7" height="637.4"/>
	</defs>
	<clipPath id="SVGID_2_">
		<use xlink:href="#SVGID_1_"  overflow="visible"/>
	</clipPath>
	<g transform="matrix(1 0 0 1 0 0)" clip-path="url(#SVGID_2_)">
		
			<image overflow="visible" width="1920" height="1080" xlink:href="../kiontaleBG.png"  transform="matrix(0.8603 0 0 0.8603 -407.4185 27.2061)">
		</image>
	</g>
</g>
<g>
	<path fill="#00234D" d="M245.1,6.7c-4.3-4.4-9.7-6.7-15.9-6.7c-5.5,0-10.4,1.8-14.5,5.4c-0.4-0.5-0.9-1-1.4-1.4l-1.1-0.8
		c-1.3-0.9-3-1.6-5.5-2.3c-2.3-0.6-4.8-1-7.4-1c-3,0-6,0.6-8.9,1.8c-2.3,1-4.4,2.2-6.3,3.7h-11.8c-0.5-2.8-2.9-4.9-5.9-4.9h-18.7
		c-2.9,0-5.4,2.1-5.9,4.9h-4.6c-0.5-2.8-2.9-4.9-5.9-4.9H124c-1.1,0-2.2,0.3-3.1,0.9c-0.9-0.5-1.9-0.9-3.1-0.9h-7.4
		c-2.6,0-4.8,1.7-5.6,4.1c-0.4-0.4-0.8-0.7-1.2-1c-2.8-2-6.5-3.1-10.8-3.1H82.6c-2.9,0-5.4,2.1-5.9,4.9h-0.6C72.1,1.9,67.2,0,61.5,0
		C55.9,0,51,1.9,46.9,5.5h-1.8c-0.5-2.8-2.9-4.9-5.9-4.9h-7.9c-2.5,0-4.7,1.5-5.5,3.8L24,8.8l-1.7-4.4c-0.9-2.3-3.1-3.8-5.5-3.8H8.9
		C5.8,0.6,3.2,2.9,3,6L0,38.7c-0.1,1.7,0.4,3.3,1.5,4.5c1.1,1.2,2.7,1.9,4.4,1.9h7.4c1.7,0,3.2-0.7,4.3-1.9c1.1,1,2.5,1.7,4.1,1.7
		H24V45h9.4c0.4,0.1,0.8,0.1,1.3,0.1h7.4c0.4,0,0.8,0,1.3-0.1h12.1c0.5,0.1,0.9,0.2,1.4,0.3c-0.3,0.2-0.6,0.4-0.9,0.7
		c-2.7,2.3-4.1,5.4-4.1,8.9c0,1.8,0.5,3.6,1.4,5.2L51.1,64c-1.5,2.5-0.9,5.7,1.3,7.6l0.3,0.3c0.5,0.4,1.1,0.8,1.9,1.3
		c0.6,0.3,1.2,0.7,2,1c1,0.5,2.1,0.8,3.4,1.1c1.2,0.3,2.5,0.4,3.8,0.4c0.6,0,1.3,0,1.9-0.1h35.7c0.6,0.1,1.3,0.1,1.9,0.1
		c0.7,0,1.3,0,1.9-0.1h54.7c0.6,0.1,1.2,0.1,1.9,0.1c0.6,0,1.2,0,1.8-0.1H183c0.6,0.1,1.3,0.1,1.9,0.1c1.5,0,3-0.2,4.4-0.6
		c1.5-0.4,2.9-1,4.2-1.9c1.6-1.1,2.9-2.6,3.7-4.4c0.8-1.7,1.2-3.6,1.2-5.6c0-2.6-0.9-5-2.7-6.9l1.4-2.8c1.4-2.7,0.5-6-2-7.6
		l-0.7-0.5c1.5,0.3,3.1,0.5,4.7,0.5c1.6,0,3.3-0.1,4.8-0.4c0.6-0.1,1.1-0.2,1.7-0.3h17.5c1.9,0.5,3.9,0.7,6,0.7
		c6.3,0,11.7-2.3,16-6.7c4.2-4.4,6.4-9.8,6.4-16.2C251.6,16.5,249.4,11.1,245.1,6.7z"/>
	<g>
		<g>
			<path fill="#37CBD2" d="M34.7,39.2l-1.5-19.4h-0.2L26.3,39h-4.4l-6.7-19.2h-0.2l-1.5,19.4H5.9L8.9,6.5h7.9L24,25.4l7.2-18.8h7.9
				l2.9,32.7H34.7z"/>
			<path fill="#37CBD2" d="M45.1,22.8c0-4.7,1.6-8.7,4.8-12c3.2-3.3,7.1-4.9,11.6-4.9c4.6,0,8.4,1.6,11.6,4.9
				c3.2,3.3,4.8,7.3,4.8,12c0,4.8-1.6,8.8-4.7,12.1c-3.1,3.3-7,4.9-11.7,4.9c-4.8,0-8.7-1.6-11.8-4.9C46.6,31.7,45.1,27.7,45.1,22.8
				z M53.1,22.8c0,1.7,0.3,3.3,0.8,4.7c0.5,1.4,1.5,2.6,2.8,3.6c1.3,1,2.9,1.5,4.9,1.5c2.8,0,4.9-1,6.3-2.9c1.4-1.9,2.1-4.2,2.1-6.9
				c0-2.7-0.7-5-2.2-6.9c-1.4-1.9-3.5-2.9-6.2-2.9c-2.7,0-4.8,1-6.2,2.9C53.8,17.9,53.1,20.2,53.1,22.8z"/>
			<path fill="#37CBD2" d="M82.6,6.5h10.1c3.1,0,5.5,0.7,7.3,2c1.8,1.3,2.7,3.4,2.7,6.4c0,3.3-1.4,5.6-4.1,7c4.6,0.8,7,3.6,7,8.2
				c0,2.7-1,4.9-2.9,6.6c-1.9,1.7-4.5,2.5-7.8,2.5H82.6V6.5z M90.1,19.3h0.6c1.7,0,2.9-0.3,3.7-0.9c0.8-0.6,1.2-1.5,1.2-2.9
				c0-2.2-1.7-3.3-4.9-3.3h-0.6V19.3z M90.1,33.5h2.3c3.6,0,5.5-1.2,5.5-3.6c0-1.5-0.5-2.5-1.4-3.1c-0.9-0.6-2.3-1-4.1-1h-2.3V33.5z
				"/>
			<path fill="#37CBD2" d="M117.8,6.5v32.7h-7.4V6.5H117.8z"/>
			<path fill="#37CBD2" d="M131.4,6.5v26.1h11.2v6.5H124V6.5H131.4z"/>
			<path fill="#37CBD2" d="M166.4,6.5v6.5h-11.2v6.5H166v6.5h-10.8v6.6h11.2v6.5h-18.7V6.5H166.4z"/>
			<path fill="#37CBD2" d="M200.4,32.5c1.1,0,2.2-0.2,3.3-0.5c1.1-0.3,1.9-0.7,2.4-1l0.8-0.5l3.2,6.3c-0.1,0.1-0.3,0.2-0.4,0.3
				c-0.2,0.1-0.6,0.4-1.3,0.7c-0.7,0.4-1.4,0.7-2.2,0.9c-0.8,0.3-1.8,0.5-3,0.7c-1.2,0.2-2.5,0.3-3.8,0.3c-3,0-5.9-0.7-8.6-2.2
				c-2.7-1.5-4.9-3.5-6.6-6.2c-1.7-2.6-2.5-5.4-2.5-8.5c0-2.3,0.5-4.5,1.5-6.6c1-2.1,2.3-3.9,3.9-5.4c1.6-1.5,3.5-2.7,5.7-3.6
				c2.2-0.9,4.4-1.3,6.7-1.3c2.1,0,4.1,0.3,5.8,0.8c1.8,0.5,3,1,3.8,1.5l1.1,0.8l-3.2,6.3c-0.2-0.2-0.5-0.3-0.8-0.6
				c-0.4-0.2-1.1-0.5-2.2-0.9c-1.1-0.4-2.2-0.6-3.4-0.6c-1.8,0-3.4,0.3-4.8,0.9c-1.4,0.6-2.6,1.3-3.4,2.3c-0.8,1-1.5,2-1.9,3.1
				c-0.4,1.1-0.7,2.2-0.7,3.3c0,2.5,0.9,4.7,2.8,6.7C194.3,31.5,196.9,32.5,200.4,32.5z"/>
			<path fill="#37CBD2" d="M212.8,22.8c0-4.7,1.6-8.7,4.8-12c3.2-3.3,7.1-4.9,11.6-4.9c4.6,0,8.4,1.6,11.6,4.9
				c3.2,3.3,4.8,7.3,4.8,12c0,4.8-1.6,8.8-4.7,12.1c-3.1,3.3-7,4.9-11.7,4.9c-4.8,0-8.7-1.6-11.8-4.9
				C214.3,31.7,212.8,27.7,212.8,22.8z M220.8,22.8c0,1.7,0.3,3.3,0.8,4.7c0.5,1.4,1.5,2.6,2.8,3.6c1.3,1,2.9,1.5,4.9,1.5
				c2.8,0,4.9-1,6.3-2.9c1.4-1.9,2.1-4.2,2.1-6.9c0-2.7-0.7-5-2.2-6.9c-1.4-1.9-3.5-2.9-6.2-2.9c-2.7,0-4.8,1-6.2,2.9
				C221.5,17.9,220.8,20.2,220.8,22.8z"/>
		</g>
	</g>
	<g>
		<g>
			<path fill="#ECECEC" d="M64.5,48.8c1.1,0,2.2,0.2,3.2,0.5c1,0.3,1.8,0.6,2.3,0.9l0.7,0.5l-1.9,3.7c-0.1-0.1-0.4-0.2-0.6-0.4
				c-0.3-0.2-0.7-0.4-1.5-0.6c-0.7-0.3-1.4-0.4-2-0.4c-0.8,0-1.4,0.2-1.8,0.5c-0.4,0.3-0.6,0.8-0.6,1.3c0,0.3,0.1,0.5,0.3,0.8
				c0.2,0.2,0.5,0.5,1,0.8c0.5,0.3,0.9,0.5,1.2,0.6c0.4,0.2,0.9,0.4,1.7,0.7c1.3,0.6,2.4,1.3,3.3,2.3c0.9,1,1.4,2,1.4,3.2
				c0,1.2-0.2,2.2-0.6,3c-0.4,0.9-1,1.5-1.7,2c-0.7,0.5-1.5,0.9-2.4,1.1c-0.9,0.2-1.8,0.4-2.9,0.4c-0.9,0-1.7-0.1-2.6-0.3
				c-0.8-0.2-1.6-0.4-2.1-0.7c-0.6-0.3-1.1-0.5-1.5-0.8c-0.5-0.3-0.8-0.5-1-0.7L56.2,67l2.3-3.9c0.2,0.2,0.5,0.4,0.8,0.6
				c0.3,0.3,0.9,0.6,1.8,1c0.9,0.4,1.6,0.6,2.3,0.6c1.9,0,2.9-0.7,2.9-2c0-0.3-0.1-0.5-0.2-0.8s-0.4-0.5-0.7-0.7
				c-0.4-0.2-0.7-0.4-0.9-0.6c-0.3-0.1-0.7-0.3-1.3-0.6c-0.6-0.3-1.1-0.5-1.4-0.6c-1.2-0.6-2.2-1.4-2.8-2.3s-1-1.9-1-2.9
				c0-1.8,0.7-3.3,2-4.4C61.3,49.4,62.8,48.8,64.5,48.8z"/>
			<path fill="#ECECEC" d="M75.4,53.2v-4h14.2v4h-4.8v16.1h-4.6V53.2H75.4z"/>
			<path fill="#ECECEC" d="M111.1,49.2v13c0,2.5-0.7,4.3-2,5.6c-1.3,1.3-3.3,1.9-5.9,1.9c-2.6,0-4.5-0.6-5.9-1.9
				c-1.3-1.3-2-3.1-2-5.6v-13h4.6v11.6c0,1.6,0.3,2.8,0.8,3.4c0.5,0.6,1.3,1,2.5,1c1.2,0,2-0.3,2.5-1c0.5-0.6,0.8-1.8,0.8-3.4V49.2
				H111.1z"/>
			<path fill="#ECECEC" d="M118.2,49.2h5.8c2.8,0,5.2,1,7.2,2.9c2,1.9,3,4.3,3,7.2c0,2.9-1,5.3-3,7.2c-2,1.9-4.4,2.9-7.2,2.9h-5.8
				V49.2z M122.8,65.2h0.7c1.7,0,3-0.6,4.1-1.7s1.6-2.6,1.6-4.3c0-1.7-0.5-3.1-1.6-4.3c-1.1-1.1-2.4-1.7-4.1-1.7h-0.7V65.2z"/>
			<path fill="#ECECEC" d="M145.2,49.2v20.1h-4.6V49.2H145.2z"/>
			<path fill="#ECECEC" d="M151.6,59.2c0-2.9,1-5.4,3-7.4c2-2,4.4-3,7.2-3c2.8,0,5.2,1,7.2,3c2,2,3,4.5,3,7.4c0,2.9-1,5.4-2.9,7.4
				c-1.9,2-4.3,3-7.2,3c-2.9,0-5.4-1-7.3-3S151.6,62.2,151.6,59.2z M156.6,59.2c0,1.1,0.2,2,0.5,2.9c0.3,0.9,0.9,1.6,1.7,2.2
				c0.8,0.6,1.8,0.9,3,0.9c1.7,0,3-0.6,3.9-1.8c0.9-1.2,1.3-2.6,1.3-4.2c0-1.6-0.4-3.1-1.3-4.2c-0.9-1.2-2.2-1.8-3.8-1.8
				c-1.7,0-2.9,0.6-3.8,1.8C157,56.2,156.6,57.6,156.6,59.2z"/>
			<path fill="#ECECEC" d="M185.7,48.8c1.1,0,2.2,0.2,3.2,0.5c1,0.3,1.8,0.6,2.3,0.9l0.7,0.5l-1.9,3.7c-0.1-0.1-0.4-0.2-0.6-0.4
				c-0.3-0.2-0.7-0.4-1.5-0.6c-0.7-0.3-1.4-0.4-2-0.4c-0.8,0-1.4,0.2-1.8,0.5c-0.4,0.3-0.6,0.8-0.6,1.3c0,0.3,0.1,0.5,0.3,0.8
				c0.2,0.2,0.5,0.5,1,0.8c0.5,0.3,0.9,0.5,1.2,0.6c0.4,0.2,0.9,0.4,1.7,0.7c1.3,0.6,2.4,1.3,3.3,2.3c0.9,1,1.4,2,1.4,3.2
				c0,1.2-0.2,2.2-0.6,3c-0.4,0.9-1,1.5-1.7,2c-0.7,0.5-1.5,0.9-2.4,1.1c-0.9,0.2-1.8,0.4-2.9,0.4c-0.9,0-1.7-0.1-2.6-0.3
				c-0.8-0.2-1.6-0.4-2.1-0.7c-0.6-0.3-1.1-0.5-1.5-0.8c-0.5-0.3-0.8-0.5-1-0.7l-0.3-0.3l2.3-3.9c0.2,0.2,0.5,0.4,0.8,0.6
				c0.3,0.3,0.9,0.6,1.8,1c0.9,0.4,1.6,0.6,2.3,0.6c1.9,0,2.9-0.7,2.9-2c0-0.3-0.1-0.5-0.2-0.8c-0.1-0.2-0.4-0.5-0.7-0.7
				c-0.4-0.2-0.7-0.4-0.9-0.6c-0.3-0.1-0.7-0.3-1.3-0.6c-0.6-0.3-1.1-0.5-1.4-0.6c-1.2-0.6-2.2-1.4-2.8-2.3c-0.7-0.9-1-1.9-1-2.9
				c0-1.8,0.7-3.3,2-4.4C182.5,49.4,184,48.8,185.7,48.8z"/>
		</g>
	</g>
	<g>
		<polygon fill="#21A0AC" points="13.4,39.2 14.4,26.1 7.1,26.1 5.9,39.2 		"/>
		<polygon fill="#21A0AC" points="34.7,39.2 42.1,39.2 41,26.1 33.6,26.1 		"/>
		<polygon fill="#21A0AC" points="21.8,39 26.3,39 30.8,26.1 17.3,26.1 		"/>
		<path fill="#21A0AC" d="M61.5,39.8c4.7,0,8.6-1.6,11.7-4.9c2.4-2.5,3.9-5.4,4.4-8.8h-8.2c-0.3,1.4-0.9,2.6-1.7,3.7
			c-1.4,1.9-3.5,2.9-6.3,2.9c-1.9,0-3.6-0.5-4.9-1.5c-1.3-1-2.2-2.2-2.8-3.6c-0.2-0.5-0.3-1-0.4-1.5h-8.1c0.6,3.4,2,6.4,4.4,8.9
			C52.8,38.2,56.8,39.8,61.5,39.8z"/>
		<path fill="#21A0AC" d="M95,39.2c3.3,0,5.9-0.8,7.8-2.5c1.9-1.7,2.9-3.9,2.9-6.6c0-1.6-0.3-2.9-0.8-4h-9.8c0.6,0.2,1,0.4,1.4,0.6
			c0.9,0.6,1.4,1.7,1.4,3.1c0,2.4-1.8,3.6-5.5,3.6h-2.3v-7.4h-7.4v13.1H95z"/>
		<rect x="110.4" y="26.1" fill="#21A0AC" width="7.4" height="13.1"/>
		<polygon fill="#21A0AC" points="142.7,39.2 142.7,32.7 131.4,32.7 131.4,26.1 124,26.1 124,39.2 		"/>
		<polygon fill="#21A0AC" points="166.4,39.2 166.4,32.7 155.2,32.7 155.2,26.1 166,26.1 166,26.1 147.7,26.1 147.7,39.2 		"/>
		<path fill="#21A0AC" d="M190.6,37.6c2.7,1.5,5.6,2.2,8.6,2.2c1.3,0,2.6-0.1,3.8-0.3c1.2-0.2,2.2-0.4,3-0.7
			c0.8-0.3,1.5-0.6,2.2-0.9c0.7-0.4,1.1-0.6,1.3-0.7c0.2-0.1,0.3-0.2,0.4-0.3l-3.2-6.3l-0.8,0.5c-0.5,0.3-1.3,0.6-2.4,1
			c-1.1,0.3-2.2,0.5-3.3,0.5c-3.5,0-6.1-1-8-2.9c-1-1.1-1.7-2.2-2.2-3.5h-8.3c0.4,1.9,1.1,3.6,2.2,5.3
			C185.7,34,187.9,36.1,190.6,37.6z"/>
		<path fill="#21A0AC" d="M229.2,39.8c4.7,0,8.6-1.6,11.7-4.9c2.4-2.5,3.9-5.4,4.4-8.8h-8.2c-0.3,1.4-0.9,2.6-1.7,3.7
			c-1.4,1.9-3.5,2.9-6.3,2.9c-1.9,0-3.6-0.5-4.9-1.5c-1.3-1-2.2-2.2-2.8-3.6c-0.2-0.5-0.3-1-0.4-1.5H213c0.6,3.4,2,6.4,4.4,8.9
			C220.5,38.2,224.4,39.8,229.2,39.8z"/>
	</g>
	<circle fill="#ECECEC" cx="162.3" cy="59.2" r="8.9"/>
	<g>
		<g>
			<path fill="#00234D" d="M162.7,58h-1.6c-0.4,0-0.8-0.3-0.8-0.8V53c0-0.4,0.3-0.8,0.8-0.8h1.6c0.4,0,0.8,0.3,0.8,0.8v4.2
				C163.4,57.7,163.1,58,162.7,58z"/>
			<path fill="#00234D" d="M162.7,66.9h-1.6c-0.4,0-0.8-0.3-0.8-0.8v-4.2c0-0.4,0.3-0.8,0.8-0.8h1.6c0.4,0,0.8,0.3,0.8,0.8v4.2
				C163.4,66.5,163.1,66.9,162.7,66.9z"/>
			<path fill="#00234D" d="M160.3,58.8v1.6c0,0.4-0.3,0.8-0.8,0.8h-4.2c-0.4,0-0.8-0.3-0.8-0.8v-1.6c0-0.4,0.3-0.8,0.8-0.8h4.2
				C160,58,160.3,58.4,160.3,58.8z"/>
			<path fill="#00234D" d="M169.2,58.8v1.6c0,0.4-0.3,0.8-0.8,0.8h-4.2c-0.4,0-0.8-0.3-0.8-0.8v-1.6c0-0.4,0.3-0.8,0.8-0.8h4.2
				C168.8,58,169.2,58.4,169.2,58.8z"/>
		</g>
	</g>
</g>
</svg>
